<svg width="34" height="42" viewBox="0 0 34 42" fill="none" xmlns="http://www.w3.org/2000/svg">
<path d="M9.44999 29.4C11.1897 29.4 12.6 27.9897 12.6 26.25C12.6 24.5103 11.1897 23.1 9.44999 23.1C7.7103 23.1 6.3 24.5103 6.3 26.25C6.3 27.9897 7.7103 29.4 9.44999 29.4Z" fill="white"/>
<path d="M24.15 29.4C25.8897 29.4 27.3 27.9897 27.3 26.25C27.3 24.5103 25.8897 23.1 24.15 23.1C22.4103 23.1 21 24.5103 21 26.25C21 27.9897 22.4103 29.4 24.15 29.4Z" fill="white"/>
<path d="M31.2291 2.8035C28.8015 0.0777001 26.2689 0 25.9875 0H7.60409C7.13369 0 4.66619 0.1365 2.3478 2.8371C0.0651 5.4936 0 8.1102 0 8.4V33.6C0 34.157 0.22125 34.6911 0.615075 35.0849C1.0089 35.4788 1.54304 35.7 2.1 35.7H6.29999L2.1 42H6.96569L8.36639 39.9H25.1664L26.5881 42H31.5L27.3 35.7H31.5C32.0569 35.7 32.5911 35.4788 32.9849 35.0849C33.3787 34.6911 33.6 34.157 33.6 33.6V8.4C33.6021 8.0073 33.5328 5.3886 31.2291 2.8035ZM7.61249 4.2L25.9056 4.1979C25.9476 4.2021 26.9367 4.3008 28.0917 5.5965C28.3059 5.8359 28.4739 6.0711 28.623 6.3H5.01899C5.17019 6.0627 5.31929 5.8233 5.53559 5.5713C6.64229 4.2819 7.61039 4.2021 7.61249 4.2ZM4.2 12.6V10.5H29.4V16.8H4.2V12.6ZM29.4 31.5H4.2V21H29.4V31.5Z" fill="white"/>
</svg>
